<svg width="1024" height="1024" viewBox="0 0 1024 1024" fill="none" xmlns="http://www.w3.org/2000/svg">
<rect width="1024" height="1024" fill="#1E1E1E"/>
<rect width="1024" height="1024" fill="black"/>
<rect x="239" y="567" width="30" height="30" rx="10" fill="white"/>
<rect x="196" y="567" width="30" height="30" rx="10" fill="white"/>
<rect x="153" y="395" width="30" height="30" rx="10" fill="white"/>
<rect x="153" y="438" width="30" height="30" rx="10" fill="white"/>
<rect x="153" y="524" width="30" height="30" rx="10" fill="white"/>
<rect x="153" y="567" width="30" height="30" rx="10" fill="white"/>
<rect x="153" y="481" width="30" height="30" rx="10" fill="white"/>
<rect x="110" y="524" width="30" height="30" rx="10" fill="white"/>
<rect x="110" y="567" width="30" height="30" rx="10" fill="white"/>
<rect x="67" y="438" width="30" height="30" rx="10" fill="white"/>
<rect x="67" y="481" width="30" height="30" rx="10" fill="white"/>
<rect x="67" y="524" width="30" height="30" rx="10" fill="white"/>
<rect x="67" y="567" width="30" height="30" rx="10" fill="white"/>
<rect x="24" y="395" width="30" height="30" rx="10" fill="white"/>
<rect x="24" y="438" width="30" height="30" rx="10" fill="white"/>
<rect x="24" y="481" width="30" height="30" rx="10" fill="white"/>
<rect x="24" y="524" width="30" height="30" rx="10" fill="white"/>
<rect x="24" y="567" width="30" height="30" rx="10" fill="white"/>
<rect x="454" y="567" width="30" height="30" rx="10" fill="white"/>
<rect x="799" y="524" width="30" height="30" rx="10" fill="white"/>
<rect x="799" y="567" width="30" height="30" rx="10" fill="white"/>
<rect x="411" y="524" width="30" height="30" rx="10" fill="white"/>
<rect x="411" y="567" width="30" height="30" rx="10" fill="white"/>
<rect x="755" y="524" width="30" height="30" rx="10" fill="white"/>
<rect x="368" y="567" width="30" height="30" rx="10" fill="white"/>
<rect x="325" y="438" width="30" height="30" rx="10" fill="white"/>
<rect x="325" y="481" width="30" height="30" rx="10" fill="white"/>
<rect x="325" y="524" width="30" height="30" rx="10" fill="white"/>
<rect x="325" y="567" width="30" height="30" rx="10" fill="white"/>
<rect x="282" y="395" width="30" height="30" rx="10" fill="white"/>
<rect x="282" y="438" width="30" height="30" rx="10" fill="white"/>
<rect x="282" y="481" width="30" height="30" rx="10" fill="white"/>
<rect x="282" y="524" width="30" height="30" rx="10" fill="white"/>
<rect x="282" y="567" width="30" height="30" rx="10" fill="white"/>
<rect x="239" y="524" width="30" height="30" rx="10" fill="white"/>
<rect x="196" y="524" width="30" height="30" rx="10" fill="white"/>
<rect x="583" y="524" width="30" height="30" rx="10" fill="white"/>
<rect x="583" y="567" width="30" height="30" rx="10" fill="white"/>
<rect x="626" y="524" width="30" height="30" rx="10" fill="white"/>
<rect x="712" y="438" width="30" height="30" rx="10" fill="white"/>
<rect x="712" y="524" width="30" height="30" rx="10" fill="white"/>
<rect x="110" y="481" width="30" height="30" rx="10" fill="white"/>
<rect x="886" y="438" width="30" height="30" rx="10" fill="white"/>
<rect x="67" y="395" width="30" height="30" rx="10" fill="white"/>
<rect x="669" y="567" width="30" height="30" rx="10" fill="white"/>
<rect x="713" y="567" width="30" height="30" rx="10" fill="white"/>
<rect x="24" y="266" width="30" height="30" rx="10" fill="white"/>
<rect x="24" y="309" width="30" height="30" rx="10" fill="white"/>
<rect x="24" y="352" width="30" height="30" rx="10" fill="white"/>
<rect x="540" y="567" width="30" height="30" rx="10" fill="white"/>
<rect x="626" y="567" width="30" height="30" rx="10" fill="white"/>
<rect x="669" y="481" width="30" height="30" rx="10" fill="white"/>
<rect x="669" y="524" width="30" height="30" rx="10" fill="white"/>
<rect x="712" y="481" width="30" height="30" rx="10" fill="white"/>
<rect x="282" y="352" width="30" height="30" rx="10" fill="white"/>
<path d="M842 577C842 571.477 846.477 567 852 567H862C867.523 567 872 571.477 872 577V587C872 592.523 867.523 597 862 597H852C846.477 597 842 592.523 842 587V577Z" fill="white"/>
<rect x="756" y="567" width="30" height="30" rx="10" fill="white"/>
<rect x="971" y="352" width="30" height="30" rx="10" fill="white"/>
<rect x="799" y="438" width="30" height="30" rx="10" fill="white"/>
<rect x="799" y="481" width="30" height="30" rx="10" fill="white"/>
<rect x="886" y="481" width="30" height="30" rx="10" fill="white"/>
<rect x="885" y="524" width="30" height="30" rx="10" fill="white"/>
<rect x="972" y="481" width="30" height="30" rx="10" fill="white"/>
<rect x="972" y="524" width="30" height="30" rx="10" fill="white"/>
<rect x="971" y="567" width="30" height="30" rx="10" fill="white"/>
<rect x="928" y="567" width="30" height="30" rx="10" fill="white"/>
<rect x="885" y="567" width="30" height="30" rx="10" fill="white"/>
<g filter="url(#filter0_d_0_1)">
<rect x="971" y="395" width="30" height="30" rx="10" fill="white"/>
</g>
<g filter="url(#filter1_d_0_1)">
<rect x="972" y="438" width="30" height="30" rx="10" fill="white"/>
</g>
<rect x="971" y="309" width="30" height="30" rx="10" fill="white"/>
<path d="M418.25 362V237C418.25 212.136 428.127 188.29 445.709 170.709C463.29 153.127 487.136 143.25 512 143.25C536.864 143.25 560.71 153.127 578.291 170.709C595.873 188.29 605.75 212.136 605.75 237V362C605.75 386.864 595.873 410.71 578.291 428.291C560.71 445.873 536.864 455.75 512 455.75C487.136 455.75 463.29 445.873 445.709 428.291C428.127 410.71 418.25 386.864 418.25 362ZM668.25 362C668.25 357.856 666.604 353.882 663.674 350.951C660.743 348.021 656.769 346.375 652.625 346.375C648.481 346.375 644.507 348.021 641.576 350.951C638.646 353.882 637 357.856 637 362C637 395.152 623.83 426.946 600.388 450.388C576.946 473.83 545.152 487 512 487C478.848 487 447.054 473.83 423.612 450.388C400.17 426.946 387 395.152 387 362C387 357.856 385.354 353.882 382.424 350.951C379.493 348.021 375.519 346.375 371.375 346.375C367.231 346.375 363.257 348.021 360.326 350.951C357.396 353.882 355.75 357.856 355.75 362C355.798 400.722 370.202 438.05 396.177 466.767C422.152 495.484 457.852 513.549 496.375 517.469V580.75C496.375 584.894 498.021 588.868 500.951 591.799C503.882 594.729 507.856 596.375 512 596.375C516.144 596.375 520.118 594.729 523.049 591.799C525.979 588.868 527.625 584.894 527.625 580.75V517.469C566.148 513.549 601.848 495.484 627.823 466.767C653.798 438.05 668.202 400.722 668.25 362Z" fill="#FF0000"/>
<path d="M89.3594 939V687H45.3594V667C51.4927 664.867 60.026 663 70.9594 661.4C81.8927 659.8 93.3594 659 105.359 659H125.359V939H89.3594ZM619.469 943C607.469 943 596.002 942.067 585.069 940.2C574.135 938.6 565.602 936.867 559.469 935V917H611.469C631.469 917 645.735 912.733 654.269 904.2C663.069 895.667 667.469 881.933 667.469 863C667.469 843 663.069 828.733 654.269 820.2C645.735 811.4 631.469 807 611.469 807H583.469V779H607.469C625.602 779 638.802 775 647.069 767C655.335 758.733 659.469 746.067 659.469 729C659.469 713 655.602 701 647.869 693C640.402 685 629.602 681 615.469 681H563.469V663C569.602 660.867 578.135 659 589.069 657.4C600.002 655.8 611.469 655 623.469 655C647.469 655 665.469 661.133 677.469 673.4C689.469 685.4 695.469 703.933 695.469 729C695.469 743.933 692.402 756.333 686.269 766.2C680.402 776.067 671.469 784.067 659.469 790.2V791.8C670.135 794.467 678.669 799.4 685.069 806.6C691.469 813.8 696.135 822.333 699.069 832.2C702.002 842.067 703.469 852.333 703.469 863C703.469 891 696.935 911.4 683.869 924.2C671.069 936.733 649.602 943 619.469 943ZM735.484 941V897H771.484V941H735.484ZM883.453 943C855.453 943 835.053 936.867 822.253 924.6C809.72 912.067 803.453 892.867 803.453 867C803.453 853.933 805.72 842.6 810.253 833C815.053 823.4 821.186 815.4 828.653 809C836.12 802.333 843.72 797.267 851.453 793.8V792.2C845.053 789.8 838.52 785.667 831.853 779.8C825.453 773.933 820.12 766.467 815.853 757.4C811.586 748.067 809.453 737.267 809.453 725C809.453 702.067 815.453 684.733 827.453 673C839.72 661 858.386 655 883.453 655C908.52 655 927.053 661 939.053 673C951.32 684.733 957.453 702.067 957.453 725C957.453 737.267 955.32 748.067 951.053 757.4C946.786 766.467 941.453 773.933 935.053 779.8C928.653 785.667 922.12 789.8 915.453 792.2V793.8C923.186 797.267 930.653 802.333 937.853 809C945.32 815.4 951.453 823.4 956.253 833C961.053 842.6 963.453 853.933 963.453 867C963.453 892.867 957.053 912.067 944.253 924.6C931.72 936.867 911.453 943 883.453 943ZM883.453 919C897.586 919 908.386 914.867 915.853 906.6C923.586 898.067 927.453 884.867 927.453 867C927.453 852.067 923.32 840.2 915.053 831.4C907.053 822.333 896.52 814.867 883.453 809C870.386 814.867 859.72 822.333 851.453 831.4C843.453 840.2 839.453 852.067 839.453 867C839.453 884.867 843.32 898.067 851.053 906.6C858.786 914.867 869.586 919 883.453 919ZM883.453 777C894.386 773 903.453 766.867 910.653 758.6C917.853 750.067 921.453 738.867 921.453 725C921.453 710.067 917.853 698.733 910.653 691C903.453 683 894.386 679 883.453 679C872.52 679 863.453 683 856.253 691C849.053 698.733 845.453 710.067 845.453 725C845.453 738.867 849.053 750.067 856.253 758.6C863.453 766.867 872.52 773 883.453 777Z" fill="white"/>
<rect x="239" y="709" width="195" height="167" fill="white"/>
<path d="M339 626C242.359 626 164 704.359 164 801C164 897.641 242.359 976 339 976C435.641 976 514 897.641 514 801C514 704.359 435.641 626 339 626ZM395.289 803.695L309.977 865.766C309.509 866.102 308.958 866.302 308.383 866.346C307.809 866.389 307.234 866.273 306.721 866.01C306.208 865.748 305.778 865.349 305.477 864.858C305.176 864.367 305.017 863.802 305.016 863.227V739.164C305.014 738.587 305.172 738.021 305.472 737.528C305.772 737.035 306.203 736.635 306.717 736.372C307.231 736.109 307.807 735.994 308.382 736.038C308.958 736.083 309.51 736.286 309.977 736.625L395.289 798.656C395.692 798.941 396.021 799.319 396.248 799.757C396.475 800.196 396.593 800.682 396.593 801.176C396.593 801.669 396.475 802.156 396.248 802.594C396.021 803.033 395.692 803.41 395.289 803.695Z" fill="#FF0000"/>
<defs>
<filter id="filter0_d_0_1" x="967" y="395" width="38" height="38" filterUnits="userSpaceOnUse" color-interpolation-filters="sRGB">
<feFlood flood-opacity="0" result="BackgroundImageFix"/>
<feColorMatrix in="SourceAlpha" type="matrix" values="0 0 0 0 0 0 0 0 0 0 0 0 0 0 0 0 0 0 127 0" result="hardAlpha"/>
<feOffset dy="4"/>
<feGaussianBlur stdDeviation="2"/>
<feComposite in2="hardAlpha" operator="out"/>
<feColorMatrix type="matrix" values="0 0 0 0 0 0 0 0 0 0 0 0 0 0 0 0 0 0 0.25 0"/>
<feBlend mode="normal" in2="BackgroundImageFix" result="effect1_dropShadow_0_1"/>
<feBlend mode="normal" in="SourceGraphic" in2="effect1_dropShadow_0_1" result="shape"/>
</filter>
<filter id="filter1_d_0_1" x="968" y="438" width="38" height="38" filterUnits="userSpaceOnUse" color-interpolation-filters="sRGB">
<feFlood flood-opacity="0" result="BackgroundImageFix"/>
<feColorMatrix in="SourceAlpha" type="matrix" values="0 0 0 0 0 0 0 0 0 0 0 0 0 0 0 0 0 0 127 0" result="hardAlpha"/>
<feOffset dy="4"/>
<feGaussianBlur stdDeviation="2"/>
<feComposite in2="hardAlpha" operator="out"/>
<feColorMatrix type="matrix" values="0 0 0 0 0 0 0 0 0 0 0 0 0 0 0 0 0 0 0.25 0"/>
<feBlend mode="normal" in2="BackgroundImageFix" result="effect1_dropShadow_0_1"/>
<feBlend mode="normal" in="SourceGraphic" in2="effect1_dropShadow_0_1" result="shape"/>
</filter>
</defs>
</svg>
